{"glyphs":{"0":{"ha":1294,"x_min":0,"x_max":0,"o":"m 647 -33 b 1211 521 986 -33 1211 189 b 647 1074 1211 853 986 1074 b 83 521 308 1074 83 853 b 647 -33 83 189 308 -33 z m 647 125 b 261 521 414 125 261 283 b 647 917 261 758 414 917 b 1033 521 881 917 1033 758 b 647 125 1033 283 881 125 z "},"1":{"ha":800,"x_min":0,"x_max":0,"o":"m 90 626 b 494 818 310 626 461 717 l 496 0 l 682 0 l 682 1042 l 500 1042 b 90 776 447 882 293 776 l 49 776 l 49 626 z "},"2":{"ha":1065,"x_min":0,"x_max":0,"o":"m 83 0 l 999 0 l 999 153 l 354 153 b 825 407 533 189 704 306 b 993 731 926 494 993 594 b 546 1067 993 932 814 1067 b 131 931 397 1067 232 1013 l 131 760 b 538 910 233 849 396 910 b 813 721 704 910 813 835 b 597 415 813 611 728 518 b 83 153 531 363 331 243 z "},"3":{"ha":1069,"x_min":0,"x_max":0,"o":"m 63 42 b 506 -26 138 1 314 -26 b 1000 307 803 -26 1000 107 b 556 601 1000 469 828 601 l 975 899 l 975 1044 l 85 1044 l 85 892 l 753 892 l 335 599 l 335 463 l 582 463 b 831 290 731 463 831 393 b 492 131 831 194 694 131 b 63 207 288 131 115 161 z "},"4":{"ha":1265,"x_min":0,"x_max":0,"o":"m 83 169 l 807 169 l 807 -14 l 976 -14 l 976 169 l 1182 169 l 1182 322 l 976 322 l 976 1056 l 788 1056 l 83 322 z m 292 322 l 807 860 l 807 322 z "},"5":{"ha":1101,"x_min":0,"x_max":0,"o":"m 76 71 b 522 -26 172 13 350 -26 b 1004 307 811 -26 1004 106 b 586 621 1004 463 865 621 l 256 621 l 256 889 l 947 889 l 947 1042 l 99 1042 l 99 476 l 532 476 b 836 307 754 476 836 408 b 522 128 836 200 711 128 b 76 246 336 128 158 175 z "},"6":{"ha":1168,"x_min":0,"x_max":0,"o":"m 83 526 b 167 208 83 413 117 285 b 613 -26 264 68 443 -26 b 1104 307 907 -26 1104 107 b 686 628 1104 500 938 628 b 258 497 525 628 349 592 b 254 560 256 519 254 540 b 367 822 254 664 299 765 b 676 926 440 885 564 926 b 1057 811 813 926 964 881 l 1057 981 b 669 1075 969 1038 814 1075 b 274 943 533 1075 375 1022 b 83 526 160 853 83 686 z m 288 351 b 642 483 346 431 488 483 b 936 307 818 483 936 413 b 642 125 936 197 818 125 b 294 332 483 125 344 208 z "},"7":{"ha":1014,"x_min":0,"x_max":0,"o":"m 42 886 l 750 886 l 92 0 l 303 0 l 960 903 l 960 1039 l 42 1039 z "},"8":{"ha":1215,"x_min":0,"x_max":0,"o":"m 83 265 b 608 -28 83 89 293 -28 b 1132 265 922 -28 1132 89 b 857 522 1132 383 1029 475 b 1104 783 1011 565 1104 660 b 608 1067 1104 953 906 1067 b 111 785 310 1067 111 954 b 360 533 111 671 204 582 b 83 265 189 492 83 394 z m 297 772 b 608 932 297 868 422 932 b 918 772 794 932 918 868 b 603 600 918 667 801 600 b 297 772 429 600 297 667 z m 289 283 b 614 449 289 385 410 449 b 926 283 792 449 926 385 b 608 110 926 179 799 110 b 289 283 417 110 289 179 z "},"9":{"ha":1158,"x_min":0,"x_max":0,"o":"m 64 715 b 500 393 64 522 239 393 b 928 539 676 393 851 456 b 492 122 961 293 783 122 b 111 240 358 122 206 169 l 111 71 b 499 -26 201 13 357 -26 b 1075 519 844 -26 1075 164 b 539 1069 1075 851 881 1069 b 64 715 254 1069 64 928 z m 236 715 b 535 926 236 842 356 926 b 899 692 708 926 854 836 b 535 538 844 603 699 538 b 236 715 356 538 236 608 z "}," ":{"ha":528,"x_min":0,"x_max":0,"o":""},"!":{"ha":328,"x_min":0,"x_max":0,"o":"m 63 1049 l 92 303 l 239 303 l 265 1049 z m 261 0 l 261 181 l 65 181 l 65 0 z "},"\"":{"ha":650,"x_min":0,"x_max":0,"o":"m 76 969 l 106 572 l 247 572 l 274 969 z m 376 969 l 406 572 l 547 572 l 574 969 z "},"#":{"ha":1449,"x_min":0,"x_max":0,"o":"m 235 0 l 383 257 l 757 257 l 608 0 l 799 0 l 947 257 l 1185 257 l 1185 399 l 1036 399 l 1165 643 l 1388 643 l 1388 785 l 1254 785 l 1403 1042 l 1213 1042 l 1064 785 l 690 785 l 839 1042 l 650 1042 l 501 785 l 265 785 l 265 643 l 413 643 l 283 399 l 61 399 l 61 257 l 194 257 l 46 0 z m 601 643 l 975 643 l 846 399 l 472 399 z "},"$":{"ha":1138,"x_min":0,"x_max":0,"o":"m 1047 313 b 792 557 1047 453 933 518 l 792 883 b 1003 788 890 863 967 829 l 1003 978 b 792 1042 950 1004 875 1028 l 792 1233 l 653 1233 l 653 1060 b 568 1063 625 1061 596 1063 b 513 1061 549 1063 531 1063 l 513 1233 l 374 1233 l 374 1040 b 90 740 199 994 90 886 b 374 483 90 593 219 526 l 374 156 b 97 282 243 179 142 224 l 97 85 b 374 -6 156 44 256 13 l 374 -239 l 513 -239 l 513 -19 b 594 -22 539 -21 567 -22 b 653 -19 614 -22 633 -21 l 653 -239 l 792 -239 l 792 6 b 1047 313 950 56 1047 167 z m 568 904 b 653 901 597 904 625 903 l 653 588 l 513 613 l 513 903 b 568 904 531 904 549 904 z m 260 757 b 374 876 260 808 301 850 l 374 646 b 260 757 306 669 260 701 z m 594 138 b 513 140 567 138 539 139 l 513 451 b 653 424 561 442 608 433 l 653 140 b 594 138 635 139 615 138 z m 792 174 l 792 382 b 878 283 844 358 878 328 b 792 174 878 236 846 199 z "},"%":{"ha":1892,"x_min":0,"x_max":0,"o":"m 138 490 b 403 400 206 431 293 400 b 771 729 621 400 771 529 b 403 1058 771 929 621 1058 b 35 729 185 1058 35 929 b 138 490 35 629 69 550 z m 565 0 l 1531 1042 l 1325 1042 l 360 0 z m 251 883 b 407 939 290 921 343 939 b 625 729 536 939 625 858 b 407 519 625 600 536 519 b 190 729 281 519 190 600 b 251 883 190 793 211 844 z m 1224 74 b 1489 -17 1292 14 1379 -17 b 1857 313 1707 -17 1857 113 b 1489 642 1857 513 1707 642 b 1121 313 1271 642 1121 513 b 1224 74 1121 213 1156 133 z m 1338 467 b 1493 522 1376 504 1429 522 b 1711 313 1622 522 1711 442 b 1493 103 1711 183 1622 103 b 1276 313 1367 103 1276 183 b 1338 467 1276 376 1297 428 z "},"&":{"ha":833,"x_min":0,"x_max":0,"o":""},"'":{"ha":322,"x_min":0,"x_max":0,"o":"m 63 971 l 92 574 l 233 574 l 260 971 z "},"(":{"ha":569,"x_min":0,"x_max":0,"o":"m 83 479 b 378 -222 83 183 224 -87 l 549 -222 b 272 479 389 -68 272 208 b 549 1181 272 750 389 1026 l 378 1181 b 83 479 224 1043 83 774 z "},")":{"ha":571,"x_min":0,"x_max":0,"o":"m 192 -222 b 488 479 347 -87 488 183 b 192 1181 488 774 347 1043 l 21 1181 b 299 479 182 1026 299 750 b 21 -222 299 208 182 -68 z "},"*":{"ha":833,"x_min":0,"x_max":0,"o":"m 485 753 l 713 776 l 663 936 l 461 832 l 500 1042 l 326 1042 l 368 832 l 167 936 l 117 776 l 346 751 l 167 593 l 306 503 l 414 706 l 525 503 l 661 593 z "},"+":{"ha":985,"x_min":0,"x_max":0,"o":"m 915 461 l 915 594 l 565 594 l 565 896 l 417 896 l 417 594 l 69 594 l 69 461 l 417 461 l 417 151 l 565 151 l 565 461 z "},",":{"ha":315,"x_min":0,"x_max":0,"o":"m 64 -126 l 64 -211 b 253 22 178 -189 253 -96 l 253 190 l 63 190 l 63 0 l 158 0 l 158 -6 b 64 -126 158 -65 121 -112 z "},"-":{"ha":554,"x_min":0,"x_max":0,"o":"m 492 483 l 63 483 l 63 339 l 492 339 z "},".":{"ha":318,"x_min":0,"x_max":0,"o":"m 256 0 l 256 181 l 63 181 l 63 0 z "},"/":{"ha":1097,"x_min":0,"x_max":0,"o":"m 228 -28 l 1050 1056 l 869 1056 l 47 -28 z "},":":{"ha":360,"x_min":0,"x_max":0,"o":"m 276 585 l 276 765 l 83 765 l 83 585 z m 276 0 l 276 181 l 83 181 l 83 0 z "},";":{"ha":378,"x_min":0,"x_max":0,"o":"m 274 585 l 274 765 l 83 765 l 83 585 z m 85 -126 l 85 -211 b 274 22 199 -189 274 -96 l 274 190 l 83 190 l 83 0 l 179 0 l 179 -6 b 85 -126 179 -65 142 -112 z "},"<":{"ha":996,"x_min":0,"x_max":0,"o":"m 906 61 l 906 206 l 242 472 l 906 739 l 906 885 l 64 542 l 64 404 z "},"=":{"ha":992,"x_min":0,"x_max":0,"o":"m 81 603 l 913 603 l 913 744 l 79 744 z m 81 313 l 913 313 l 913 453 l 79 453 z "},">":{"ha":996,"x_min":0,"x_max":0,"o":"m 932 404 l 932 542 l 90 885 l 90 739 l 754 472 l 90 206 l 90 61 z "},"?":{"ha":1125,"x_min":0,"x_max":0,"o":"m 107 772 b 532 896 221 847 390 897 b 860 686 729 894 860 810 b 472 513 860 557 704 488 l 472 364 b 1039 686 817 325 1043 454 b 556 1053 1035 906 842 1053 b 107 944 394 1053 215 1010 z m 629 0 l 629 201 l 443 201 l 443 0 z "},"@":{"ha":1607,"x_min":0,"x_max":0,"o":"m 69 382 b 767 -251 69 -6 349 -251 b 1233 -181 960 -251 1172 -224 l 1233 -50 b 772 -121 1181 -94 974 -121 b 222 382 439 -121 222 72 b 857 899 222 693 472 899 b 1392 488 1181 899 1392 739 b 1126 143 1392 294 1286 143 b 1097 338 1057 143 1067 176 l 1176 754 l 1038 754 l 1018 664 b 813 778 976 732 894 778 b 374 378 579 778 413 618 b 667 8 339 156 467 8 b 947 171 776 8 892 72 b 1108 15 940 60 1024 15 b 1538 489 1296 15 1538 172 b 851 1032 1538 814 1253 1032 b 69 382 382 1032 69 767 z m 968 378 b 701 133 949 240 842 133 b 519 386 554 133 496 238 b 782 650 544 544 656 649 b 974 418 915 651 993 561 z "},"A":{"ha":1297,"x_min":0,"x_max":0,"o":"m 17 0 l 219 0 l 351 261 l 949 261 l 1076 0 l 1281 0 l 756 1042 l 561 1042 z m 426 414 l 656 867 l 876 414 z "},"B":{"ha":1274,"x_min":0,"x_max":0,"o":"m 122 0 l 804 0 b 1176 290 1028 0 1176 117 b 903 535 1176 435 1067 532 b 1138 760 1043 544 1138 635 b 740 1042 1138 929 979 1042 l 122 1042 z m 304 604 l 304 890 l 740 890 b 949 739 879 890 949 829 b 750 604 949 658 869 604 z m 304 151 l 304 454 l 750 454 b 993 300 896 454 993 393 b 804 151 993 211 918 151 z "},"C":{"ha":1213,"x_min":0,"x_max":0,"o":"m 1106 806 l 1106 996 b 760 1074 1019 1043 881 1074 b 97 521 363 1074 97 853 b 760 -33 97 189 363 -33 b 1129 44 894 -33 1043 -3 l 1129 239 b 760 133 1074 172 926 133 b 290 521 478 133 290 289 b 760 907 290 753 478 907 b 1106 806 903 907 1042 881 z "},"D":{"ha":1338,"x_min":0,"x_max":0,"o":"m 122 0 l 683 0 b 1240 521 1018 0 1240 213 b 683 1042 1240 838 1018 1042 l 122 1042 z m 304 154 l 304 888 l 683 888 b 1060 514 910 888 1060 738 b 683 154 1060 299 910 154 z "},"E":{"ha":1124,"x_min":0,"x_max":0,"o":"m 122 0 l 1015 0 l 1015 153 l 303 153 l 303 450 l 929 450 l 929 603 l 303 603 l 303 889 l 1004 889 l 1004 1042 l 122 1042 z "},"F":{"ha":1057,"x_min":0,"x_max":0,"o":"m 108 0 l 289 0 l 289 408 l 915 408 l 915 561 l 289 561 l 289 889 l 990 889 l 990 1042 l 108 1042 z "},"G":{"ha":1282,"x_min":0,"x_max":0,"o":"m 97 521 b 774 -33 97 189 368 -33 b 1199 72 914 -33 1085 8 l 1199 546 l 689 546 l 689 393 l 1018 393 l 1018 163 b 774 128 946 140 861 128 b 290 521 483 128 290 285 b 760 910 290 754 478 910 b 1147 806 939 910 1094 868 l 1147 996 b 760 1076 1060 1044 906 1076 b 97 521 363 1076 97 854 z "},"H":{"ha":1317,"x_min":0,"x_max":0,"o":"m 122 0 l 303 0 l 303 442 l 1013 442 l 1013 0 l 1194 0 l 1194 1042 l 1013 1042 l 1013 594 l 303 594 l 303 1042 l 122 1042 z "},"I":{"ha":425,"x_min":0,"x_max":0,"o":"m 303 0 l 303 1042 l 122 1042 l 122 0 z "},"J":{"ha":888,"x_min":0,"x_max":0,"o":"m 14 51 b 331 -18 76 10 203 -18 b 789 346 568 -18 792 132 l 782 1042 l 608 1042 l 608 346 b 296 139 608 185 447 139 b 14 228 190 139 78 169 z "},"K":{"ha":1208,"x_min":0,"x_max":0,"o":"m 122 0 l 303 0 l 303 326 l 543 522 l 956 0 l 1194 0 l 682 632 l 1151 1039 l 914 1039 l 303 533 l 303 1042 l 122 1042 z "},"L":{"ha":1036,"x_min":0,"x_max":0,"o":"m 122 0 l 960 0 l 960 153 l 303 153 l 303 1042 l 122 1042 z "},"M":{"ha":1536,"x_min":0,"x_max":0,"o":"m 122 1042 l 122 0 l 303 0 l 303 790 l 704 0 l 842 0 l 1233 781 l 1233 0 l 1414 0 l 1414 1042 l 1194 1042 l 776 246 l 351 1042 l 350 1040 z "},"N":{"ha":1317,"x_min":0,"x_max":0,"o":"m 122 0 l 303 0 l 303 456 l 300 779 l 1013 0 l 1194 0 l 1194 1042 l 1013 1042 l 1013 258 l 297 1042 l 122 1042 z "},"O":{"ha":1436,"x_min":0,"x_max":0,"o":"m 718 -28 b 1339 521 1090 -28 1339 192 b 718 1068 1339 850 1090 1068 b 97 521 346 1068 97 850 b 718 -28 97 192 346 -28 z m 718 138 b 286 521 457 138 286 294 b 718 903 286 747 457 903 b 1150 521 979 903 1150 747 b 718 138 1150 294 979 138 z "},"P":{"ha":1221,"x_min":0,"x_max":0,"o":"m 122 0 l 304 0 l 304 357 l 742 357 b 1138 697 979 357 1138 493 b 731 1042 1138 904 975 1042 l 122 1042 z m 304 511 l 304 888 l 731 888 b 960 699 868 888 960 813 b 742 511 960 586 872 511 z "},"Q":{"ha":1436,"x_min":0,"x_max":0,"o":"m 97 521 b 718 -28 97 192 346 -28 b 1111 85 874 -28 1008 17 l 1224 -14 l 1333 89 l 1219 186 b 1339 521 1293 276 1339 388 b 718 1068 1339 850 1090 1068 b 97 521 346 1068 97 850 z m 286 521 b 718 903 286 747 457 903 b 1150 521 979 903 1150 747 b 1083 296 1150 436 1126 357 l 956 410 l 849 299 l 975 203 b 718 138 907 164 815 138 b 286 521 457 138 286 294 z "},"R":{"ha":1247,"x_min":0,"x_max":0,"o":"m 122 0 l 122 1042 l 729 1042 b 1138 697 974 1042 1138 904 b 865 404 1138 549 1033 439 l 1178 0 l 953 0 l 660 392 l 304 392 l 304 0 z m 304 546 l 740 546 b 953 699 868 546 953 607 b 729 888 953 813 864 888 l 304 888 z "},"S":{"ha":1185,"x_min":0,"x_max":0,"o":"m 90 743 b 917 281 90 375 917 503 b 619 133 917 192 797 133 b 97 279 376 133 168 192 l 97 81 b 619 -28 193 15 401 -28 b 1094 311 904 -28 1094 108 b 268 760 1094 683 268 528 b 592 908 268 849 397 908 b 1049 790 801 908 985 861 l 1049 982 b 592 1068 946 1033 763 1068 b 90 743 290 1068 90 938 z "},"T":{"ha":1157,"x_min":0,"x_max":0,"o":"m 35 889 l 483 889 l 483 0 l 664 0 l 664 889 l 1122 889 l 1122 1042 l 35 1042 z "},"U":{"ha":1267,"x_min":0,"x_max":0,"o":"m 97 417 b 635 -24 97 153 313 -24 b 1169 417 956 -24 1169 153 l 1169 1042 l 989 1042 l 989 417 b 638 147 989 250 849 147 b 278 417 422 147 278 250 l 278 1042 l 97 1042 z "},"V":{"ha":1301,"x_min":0,"x_max":0,"o":"m 1285 1042 l 1079 1042 l 658 197 l 233 1042 l 17 1042 l 550 0 l 744 0 z "},"W":{"ha":2024,"x_min":0,"x_max":0,"o":"m 21 1042 l 492 0 l 683 0 l 1019 846 l 1340 0 l 1532 0 l 2003 1042 l 1808 1042 l 1454 213 l 1119 1042 l 922 1042 l 594 213 l 229 1042 z "},"X":{"ha":1221,"x_min":0,"x_max":0,"o":"m 17 0 l 244 0 l 610 392 l 965 0 l 1204 0 l 724 519 l 1204 1042 l 981 1042 l 624 636 l 272 1042 l 29 1042 l 501 514 z "},"Y":{"ha":1243,"x_min":0,"x_max":0,"o":"m 535 379 l 535 0 l 715 0 l 715 379 l 1226 1042 l 1024 1042 l 629 543 l 236 1042 l 17 1042 z "},"Z":{"ha":1083,"x_min":0,"x_max":0,"o":"m 49 0 l 1035 0 l 1035 157 l 286 157 l 1022 901 l 1022 1042 l 90 1042 l 90 885 l 789 885 l 49 144 z "},"[":{"ha":503,"x_min":0,"x_max":0,"o":"m 461 -181 l 461 -64 l 283 -64 l 283 1106 l 461 1106 l 461 1222 l 111 1222 l 111 -181 z "},"\\":{"ha":1097,"x_min":0,"x_max":0,"o":"m 869 -28 l 1050 -28 l 228 1056 l 47 1056 z "},"]":{"ha":503,"x_min":0,"x_max":0,"o":"m 42 -181 l 392 -181 l 392 1222 l 42 1222 l 42 1106 l 219 1106 l 219 -64 l 42 -64 z "},"_":{"ha":814,"x_min":0,"x_max":0,"o":"m 779 -21 l 49 -21 l 49 -160 l 779 -160 z "},"a":{"ha":965,"x_min":0,"x_max":0,"o":"m 63 203 b 354 -22 61 68 178 -22 b 715 168 538 -22 682 54 l 719 0 l 867 0 l 868 464 b 521 793 867 657 739 793 b 133 672 378 793 219 744 l 133 521 b 504 650 222 599 364 650 b 714 485 624 650 713 583 l 615 485 b 63 203 299 485 65 372 z m 226 219 b 628 364 226 304 388 364 l 697 364 b 226 219 697 110 226 35 z "},"b":{"ha":1069,"x_min":0,"x_max":0,"o":"m 100 0 l 267 0 l 274 140 b 581 -26 335 40 457 -26 b 979 383 819 -26 979 138 b 594 794 979 631 825 794 b 274 626 464 794 336 728 l 274 1042 l 100 1042 z m 547 121 b 282 367 388 121 282 219 l 282 410 b 547 650 282 554 388 650 b 807 390 703 650 807 546 b 547 121 807 229 703 121 z "},"c":{"ha":883,"x_min":0,"x_max":0,"o":"m 797 550 l 797 724 b 515 793 740 767 628 793 b 63 385 243 793 63 631 b 515 -26 63 138 243 -26 b 825 57 619 -26 743 7 l 825 213 b 515 119 761 157 636 119 b 231 385 344 119 231 225 b 515 651 231 544 344 651 b 797 550 608 651 721 611 z "},"d":{"ha":1036,"x_min":0,"x_max":0,"o":"m 939 0 l 939 1042 l 765 1042 l 765 633 b 451 794 706 731 581 794 b 63 390 215 794 63 633 b 465 -26 63 140 221 -26 b 765 154 579 -26 700 46 l 765 0 z m 761 367 b 499 118 761 218 658 118 b 236 390 342 118 236 228 b 499 653 236 547 342 653 b 761 410 658 653 761 556 z "},"e":{"ha":939,"x_min":0,"x_max":0,"o":"m 63 385 b 519 -26 63 138 246 -26 b 853 61 621 -26 754 8 l 853 204 b 519 111 781 149 647 111 b 226 317 374 111 257 193 l 883 317 l 883 447 b 494 793 871 654 715 793 b 63 385 235 793 63 629 z m 224 442 b 489 665 246 578 351 665 b 724 442 624 665 717 578 z "},"f":{"ha":831,"x_min":0,"x_max":0,"o":"m 35 582 l 229 582 l 229 0 l 403 0 l 403 582 l 740 582 l 740 724 l 403 724 l 403 801 b 572 928 403 878 471 928 b 813 853 661 928 757 897 l 813 1014 b 572 1069 768 1047 672 1069 b 229 801 367 1069 229 963 l 229 724 l 36 724 z "},"g":{"ha":1044,"x_min":0,"x_max":0,"o":"m 63 386 b 450 -28 63 138 218 -28 b 768 142 578 -28 706 40 l 763 31 b 464 -187 756 -100 636 -187 b 138 -75 329 -187 199 -143 l 138 -239 b 465 -335 206 -296 338 -335 b 933 82 746 -335 933 -168 l 933 767 l 767 767 l 764 640 b 464 793 708 732 589 793 b 63 386 224 793 63 631 z m 768 367 b 500 115 768 215 661 115 b 235 390 340 115 235 225 b 500 656 235 550 340 656 b 768 410 661 656 768 557 z "},"h":{"ha":1008,"x_min":0,"x_max":0,"o":"m 100 0 l 274 0 l 274 382 b 560 647 317 542 431 647 b 731 490 663 647 731 571 l 731 0 l 904 0 l 904 490 b 614 793 904 686 788 793 b 274 564 449 793 313 701 l 274 1042 l 100 1042 z "},"i":{"ha":392,"x_min":0,"x_max":0,"o":"m 281 865 l 281 1046 l 107 1046 l 107 865 z m 281 0 l 281 765 l 107 765 l 107 0 z "},"j":{"ha":553,"x_min":0,"x_max":0,"o":"m 265 865 l 439 865 l 439 1046 l 265 1046 z m -35 -200 b 175 -258 26 -235 111 -258 b 439 56 333 -258 439 -133 l 439 765 l 265 765 l 265 42 b 158 -100 265 -43 222 -100 b -35 -36 108 -100 31 -75 z "},"k":{"ha":963,"x_min":0,"x_max":0,"o":"m 100 0 l 274 0 l 274 254 l 422 389 l 701 4 l 921 4 l 549 483 l 871 769 l 663 769 l 274 440 l 274 1046 l 100 1046 z "},"l":{"ha":392,"x_min":0,"x_max":0,"o":"m 107 1042 l 107 0 l 281 0 l 281 1042 z "},"m":{"ha":1597,"x_min":0,"x_max":0,"o":"m 100 0 l 274 0 l 274 382 b 553 647 317 542 424 647 b 710 490 647 647 710 585 l 710 0 l 883 0 l 883 406 b 1163 647 931 550 1038 647 b 1319 490 1257 647 1319 585 l 1319 0 l 1493 0 l 1493 490 b 1217 793 1493 672 1382 793 b 875 572 1053 793 921 704 b 607 793 846 704 739 793 b 274 564 442 793 313 701 l 274 765 l 100 765 z "},"n":{"ha":1008,"x_min":0,"x_max":0,"o":"m 100 0 l 274 0 l 274 382 b 560 647 317 542 431 647 b 731 490 663 647 731 571 l 731 0 l 904 0 l 904 490 b 614 793 904 686 788 793 b 274 564 449 793 313 701 l 274 765 l 100 765 z "},"o":{"ha":1032,"x_min":0,"x_max":0,"o":"m 515 -26 b 969 385 788 -26 969 138 b 515 794 969 631 788 794 b 63 385 243 794 63 631 b 515 -26 63 138 243 -26 z m 515 119 b 232 385 347 119 232 225 b 515 649 232 543 347 649 b 799 385 683 649 799 543 b 515 119 799 225 683 119 z "},"p":{"ha":1069,"x_min":0,"x_max":0,"o":"m 100 771 l 100 -271 l 274 -271 l 274 138 b 588 -24 333 40 458 -24 b 979 385 826 -24 979 136 b 575 793 979 626 822 793 b 274 614 460 793 339 721 l 274 771 z m 547 121 b 279 367 386 121 279 233 l 279 410 b 547 650 279 540 386 650 b 807 390 707 650 807 546 b 547 121 807 229 707 121 z "},"q":{"ha":1024,"x_min":0,"x_max":0,"o":"m 926 765 l 767 765 l 760 625 b 446 792 699 725 574 792 b 63 385 215 792 63 629 b 432 -29 63 136 210 -29 b 753 139 563 -29 690 38 l 753 -276 l 926 -276 z m 764 364 b 494 118 764 217 656 118 b 235 388 339 118 235 226 b 494 647 235 543 339 647 b 764 407 656 647 764 551 z "},"r":{"ha":764,"x_min":0,"x_max":0,"o":"m 107 0 l 281 0 l 281 457 b 518 642 310 563 404 642 b 701 574 593 642 667 606 l 701 739 b 544 793 656 771 593 793 b 281 614 415 793 310 717 l 281 765 l 107 765 z "},"s":{"ha":943,"x_min":0,"x_max":0,"o":"m 94 560 b 208 372 94 474 136 406 b 469 319 263 347 367 332 b 693 217 604 303 693 290 b 493 115 693 142 613 115 b 100 218 329 115 171 157 l 100 64 b 493 -28 186 8 344 -28 b 857 231 714 -28 857 75 b 631 440 857 335 769 418 b 346 478 544 454 432 464 b 250 554 289 486 250 517 b 465 660 250 618 336 660 b 821 578 589 660 731 626 l 821 728 b 465 793 742 764 600 793 b 94 560 235 793 94 700 z "},"t":{"ha":890,"x_min":0,"x_max":0,"o":"m 49 768 l 50 626 l 232 626 l 232 232 b 557 -26 232 76 363 -26 b 814 42 657 -26 760 1 l 814 193 b 585 117 771 147 679 117 b 406 228 478 117 406 161 l 406 626 l 796 626 l 796 768 l 406 768 l 406 986 l 232 986 l 232 768 z "},"u":{"ha":994,"x_min":0,"x_max":0,"o":"m 100 261 b 410 -28 100 96 221 -28 b 717 199 561 -28 678 63 l 717 0 l 890 0 l 890 761 l 717 761 l 717 379 b 469 118 676 222 583 118 b 274 261 350 118 274 183 l 274 761 l 100 761 z "},"v":{"ha":1008,"x_min":0,"x_max":0,"o":"m 21 764 l 407 0 l 601 0 l 988 764 l 810 764 l 507 161 l 204 764 z "},"w":{"ha":1582,"x_min":0,"x_max":0,"o":"m 21 764 l 364 0 l 554 0 l 797 568 l 1033 0 l 1224 0 l 1561 764 l 1381 764 l 1129 171 l 882 764 l 715 764 l 460 171 l 201 764 z "},"x":{"ha":981,"x_min":0,"x_max":0,"o":"m 38 -4 l 239 -4 l 489 268 l 733 -4 l 946 -4 l 599 382 l 942 768 l 740 768 l 493 479 l 247 768 l 35 768 l 385 379 z "},"y":{"ha":985,"x_min":0,"x_max":0,"o":"m 419 14 b 226 -119 363 -75 297 -119 b 78 -92 175 -119 129 -110 l 78 -246 b 243 -265 132 -258 190 -265 b 597 10 367 -265 501 -179 l 974 765 l 794 765 l 517 185 l 224 765 l 28 765 z "},"z":{"ha":917,"x_min":0,"x_max":0,"o":"m 63 128 l 64 128 l 64 0 l 847 0 l 847 142 l 294 142 l 826 636 l 826 764 l 90 764 l 92 622 l 594 622 z "},"|":{"ha":347,"x_min":0,"x_max":0,"o":"m 264 -194 l 264 1236 l 83 1236 l 83 -194 z "},"¡":{"ha":328,"x_min":0,"x_max":0,"o":"m 261 835 l 65 835 l 65 654 l 261 654 z m 63 -214 l 265 -214 l 239 532 l 92 532 z "},"¢":{"ha":883,"x_min":0,"x_max":0,"o":"m 825 213 b 571 122 771 165 674 132 l 571 647 b 797 550 650 635 736 600 l 797 724 b 571 790 750 760 664 783 l 571 944 l 418 944 l 418 786 b 63 385 201 751 63 600 b 418 -19 63 168 201 15 l 418 -167 l 571 -167 l 571 -24 b 825 57 661 -14 757 15 z m 231 385 b 418 639 231 511 303 606 l 418 132 b 231 385 303 165 231 258 z "},"£":{"ha":990,"x_min":0,"x_max":0,"o":"m 151 426 l 278 426 b 124 142 278 369 225 256 l 122 0 l 914 0 l 914 147 l 318 147 b 444 426 403 261 444 372 l 782 426 l 782 568 l 444 568 l 407 732 b 618 918 382 840 493 918 b 872 847 718 918 819 890 l 872 1011 b 618 1067 828 1044 726 1067 b 240 732 393 1067 196 929 l 278 568 l 153 568 z "},"©":{"ha":1222,"x_min":0,"x_max":0,"o":"m 610 19 b 1125 525 919 19 1125 222 b 610 1022 1125 828 919 1026 b 97 525 301 1018 96 819 b 610 19 99 222 304 19 z m 610 140 b 221 524 378 140 222 293 b 610 901 219 747 375 899 b 1001 524 844 904 1001 753 b 610 140 1001 293 844 140 z m 804 628 l 803 747 b 618 793 764 775 690 793 b 321 525 440 793 321 686 b 618 254 321 363 440 254 b 822 308 686 254 768 276 l 822 417 b 628 358 782 382 704 358 b 446 525 518 358 446 425 b 628 690 446 624 518 690 b 804 628 686 690 757 665 z "},"°":{"ha":551,"x_min":0,"x_max":0,"o":"m 275 638 b 482 840 400 638 482 719 b 275 1040 482 961 400 1042 b 69 840 153 1039 69 961 b 275 638 69 719 153 638 z m 275 731 b 169 839 211 731 169 774 b 275 947 169 903 211 947 b 382 839 340 947 382 903 b 275 731 382 774 340 731 z "},"¿":{"ha":1097,"x_min":0,"x_max":0,"o":"m 496 813 l 496 611 l 682 611 l 682 813 z m 1018 54 b 593 -83 908 -29 739 -85 b 265 114 396 -82 265 -3 b 653 303 265 251 421 326 l 653 451 b 86 114 308 494 82 360 b 569 -240 90 -99 283 -240 b 1018 -118 739 -240 918 -192 z "},"À":{"ha":1297,"x_min":0,"x_max":0,"o":"m 582 1133 l 733 1133 l 551 1329 l 361 1329 z m 17 0 l 219 0 l 351 261 l 949 261 l 1076 0 l 1281 0 l 756 1042 l 561 1042 z m 426 414 l 656 867 l 876 414 z "},"Á":{"ha":1297,"x_min":0,"x_max":0,"o":"m 732 1133 l 953 1329 l 763 1329 l 581 1133 z m 17 0 l 219 0 l 351 261 l 949 261 l 1076 0 l 1281 0 l 756 1042 l 561 1042 z m 426 414 l 656 867 l 876 414 z "},"Â":{"ha":1297,"x_min":0,"x_max":0,"o":"m 524 1121 l 656 1244 l 786 1121 l 944 1121 l 736 1344 l 574 1344 l 365 1121 z m 17 0 l 219 0 l 351 261 l 949 261 l 1076 0 l 1281 0 l 756 1042 l 561 1042 z m 426 414 l 656 867 l 876 414 z "},"Ã":{"ha":1297,"x_min":0,"x_max":0,"o":"m 471 1147 b 546 1242 471 1204 501 1242 b 782 1143 600 1242 671 1143 b 963 1351 890 1143 963 1226 l 840 1351 b 765 1257 840 1294 810 1257 b 529 1356 710 1257 642 1356 b 349 1147 421 1356 349 1272 z m 17 0 l 219 0 l 351 261 l 949 261 l 1076 0 l 1281 0 l 756 1042 l 561 1042 z m 426 414 l 656 867 l 876 414 z "},"Ä":{"ha":1297,"x_min":0,"x_max":0,"o":"m 558 1128 l 558 1285 l 385 1285 l 385 1128 z m 917 1128 l 917 1285 l 743 1285 l 743 1128 z m 17 0 l 219 0 l 351 261 l 949 261 l 1076 0 l 1281 0 l 756 1042 l 561 1042 z m 426 414 l 656 867 l 876 414 z "},"Å":{"ha":1297,"x_min":0,"x_max":0,"o":"m 493 1151 b 656 1106 532 1119 586 1106 b 876 1271 796 1106 876 1175 b 656 1436 876 1367 796 1436 b 435 1271 515 1436 435 1367 b 493 1151 435 1222 454 1183 z m 576 1325 b 656 1343 596 1338 621 1343 b 763 1271 722 1343 763 1317 b 656 1196 763 1225 722 1196 b 549 1271 589 1196 549 1225 b 576 1325 549 1293 557 1311 z m 17 0 l 219 0 l 351 261 l 949 261 l 1076 0 l 1281 0 l 756 1042 l 561 1042 z m 426 414 l 656 867 l 876 414 z "},"Æ":{"ha":1699,"x_min":0,"x_max":0,"o":"m 961 153 l 961 450 l 1504 450 l 1504 603 l 961 603 l 961 889 l 1579 889 l 1579 1042 l 563 1042 l 17 0 l 219 0 l 351 261 l 781 261 l 781 0 l 1590 0 l 1590 153 z m 426 414 l 663 889 l 781 889 l 781 414 z "},"Ç":{"ha":1213,"x_min":0,"x_max":0,"o":"m 1106 806 l 1106 996 b 760 1074 1019 1043 881 1074 b 97 521 363 1074 97 853 b 760 -33 97 189 363 -33 b 1129 44 894 -33 1043 -3 l 1129 239 b 760 133 1074 172 926 133 b 290 521 478 133 290 289 b 760 907 290 753 478 907 b 1106 806 903 907 1042 881 z m 471 -181 b 757 -219 643 -158 757 -174 b 471 -257 757 -264 643 -279 l 471 -351 b 646 -368 528 -361 599 -368 b 883 -219 789 -368 883 -308 b 646 -69 883 -129 789 -69 b 471 -86 599 -69 528 -76 z "},"È":{"ha":1124,"x_min":0,"x_max":0,"o":"m 517 1119 l 668 1119 l 486 1315 l 296 1315 z m 122 0 l 1015 0 l 1015 153 l 303 153 l 303 450 l 929 450 l 929 603 l 303 603 l 303 889 l 1004 889 l 1004 1042 l 122 1042 z "},"É":{"ha":1124,"x_min":0,"x_max":0,"o":"m 667 1119 l 888 1315 l 697 1315 l 515 1119 z m 122 0 l 1015 0 l 1015 153 l 303 153 l 303 450 l 929 450 l 929 603 l 303 603 l 303 889 l 1004 889 l 1004 1042 l 122 1042 z "},"Ê":{"ha":1124,"x_min":0,"x_max":0,"o":"m 458 1107 l 590 1231 l 721 1107 l 879 1107 l 671 1331 l 508 1331 l 300 1107 z m 122 0 l 1015 0 l 1015 153 l 303 153 l 303 450 l 929 450 l 929 603 l 303 603 l 303 889 l 1004 889 l 1004 1042 l 122 1042 z "},"Ë":{"ha":1124,"x_min":0,"x_max":0,"o":"m 493 1114 l 493 1271 l 319 1271 l 319 1114 z m 851 1114 l 851 1271 l 678 1271 l 678 1114 z m 122 0 l 1015 0 l 1015 153 l 303 153 l 303 450 l 929 450 l 929 603 l 303 603 l 303 889 l 1004 889 l 1004 1042 l 122 1042 z "},"Ì":{"ha":425,"x_min":0,"x_max":0,"o":"m 139 1147 l 290 1147 l 108 1343 l -82 1343 z m 303 0 l 303 1042 l 122 1042 l 122 0 z "},"Í":{"ha":425,"x_min":0,"x_max":0,"o":"m 289 1147 l 510 1343 l 319 1343 l 138 1147 z m 303 0 l 303 1042 l 122 1042 l 122 0 z "},"Î":{"ha":425,"x_min":0,"x_max":0,"o":"m 81 1135 l 213 1258 l 343 1135 l 501 1135 l 293 1358 l 131 1358 l -78 1135 z m 303 0 l 303 1042 l 122 1042 l 122 0 z "},"Ï":{"ha":425,"x_min":0,"x_max":0,"o":"m 115 1142 l 115 1299 l -58 1299 l -58 1142 z m 474 1142 l 474 1299 l 300 1299 l 300 1142 z m 303 0 l 303 1042 l 122 1042 l 122 0 z "},"Ñ":{"ha":1317,"x_min":0,"x_max":0,"o":"m 474 1133 b 549 1228 474 1190 504 1228 b 785 1129 603 1228 674 1129 b 965 1338 893 1129 965 1213 l 843 1338 b 768 1243 843 1281 813 1243 b 532 1342 713 1243 644 1342 b 351 1133 424 1342 351 1258 z m 122 0 l 303 0 l 303 456 l 300 779 l 1013 0 l 1194 0 l 1194 1042 l 1013 1042 l 1013 258 l 297 1042 l 122 1042 z "},"Ò":{"ha":1436,"x_min":0,"x_max":0,"o":"m 644 1119 l 796 1119 l 614 1315 l 424 1315 z m 718 -28 b 1339 521 1090 -28 1339 192 b 718 1068 1339 850 1090 1068 b 97 521 346 1068 97 850 b 718 -28 97 192 346 -28 z m 718 138 b 286 521 457 138 286 294 b 718 903 286 747 457 903 b 1150 521 979 903 1150 747 b 718 138 1150 294 979 138 z "},"Ó":{"ha":1436,"x_min":0,"x_max":0,"o":"m 794 1119 l 1015 1315 l 825 1315 l 643 1119 z m 718 -28 b 1339 521 1090 -28 1339 192 b 718 1068 1339 850 1090 1068 b 97 521 346 1068 97 850 b 718 -28 97 192 346 -28 z m 718 138 b 286 521 457 138 286 294 b 718 903 286 747 457 903 b 1150 521 979 903 1150 747 b 718 138 1150 294 979 138 z "},"Ô":{"ha":1436,"x_min":0,"x_max":0,"o":"m 586 1107 l 718 1231 l 849 1107 l 1007 1107 l 799 1331 l 636 1331 l 428 1107 z m 718 -28 b 1339 521 1090 -28 1339 192 b 718 1068 1339 850 1090 1068 b 97 521 346 1068 97 850 b 718 -28 97 192 346 -28 z m 718 138 b 286 521 457 138 286 294 b 718 903 286 747 457 903 b 1150 521 979 903 1150 747 b 718 138 1150 294 979 138 z "},"Õ":{"ha":1436,"x_min":0,"x_max":0,"o":"m 533 1133 b 608 1228 533 1190 564 1228 b 844 1129 663 1228 733 1129 b 1025 1338 953 1129 1025 1213 l 903 1338 b 828 1243 903 1281 872 1243 b 592 1342 772 1243 704 1342 b 411 1133 483 1342 411 1258 z m 718 -28 b 1339 521 1090 -28 1339 192 b 718 1068 1339 850 1090 1068 b 97 521 346 1068 97 850 b 718 -28 97 192 346 -28 z m 718 138 b 286 521 457 138 286 294 b 718 903 286 747 457 903 b 1150 521 979 903 1150 747 b 718 138 1150 294 979 138 z "},"Ö":{"ha":1436,"x_min":0,"x_max":0,"o":"m 621 1114 l 621 1271 l 447 1271 l 447 1114 z m 979 1114 l 979 1271 l 806 1271 l 806 1114 z m 718 -28 b 1339 521 1090 -28 1339 192 b 718 1068 1339 850 1090 1068 b 97 521 346 1068 97 850 b 718 -28 97 192 346 -28 z m 718 138 b 286 521 457 138 286 294 b 718 903 286 747 457 903 b 1150 521 979 903 1150 747 b 718 138 1150 294 979 138 z "},"×":{"ha":890,"x_min":0,"x_max":0,"o":"m 167 106 l 444 385 l 724 106 l 821 203 l 542 482 l 821 761 l 724 858 l 444 579 l 167 858 l 69 760 l 347 482 l 69 204 z "},"Ø":{"ha":1436,"x_min":0,"x_max":0,"o":"m 1119 956 l 1233 1117 l 1053 1117 l 986 1024 b 718 1068 907 1053 817 1068 b 97 521 346 1068 97 850 b 318 85 97 332 179 181 l 203 -78 l 383 -78 l 450 17 b 718 -28 529 -12 619 -28 b 1339 521 1090 -28 1339 192 b 1119 956 1339 708 1258 861 z m 286 521 b 718 903 286 747 457 903 b 883 879 778 903 833 894 l 422 229 b 286 521 336 297 286 399 z m 718 138 b 553 161 658 138 603 146 l 1015 811 b 1150 521 1101 743 1150 642 b 718 138 1150 294 979 138 z "},"Ù":{"ha":1267,"x_min":0,"x_max":0,"o":"m 560 1119 l 711 1119 l 529 1315 l 339 1315 z m 97 417 b 635 -24 97 153 313 -24 b 1169 417 956 -24 1169 153 l 1169 1042 l 989 1042 l 989 417 b 638 147 989 250 849 147 b 278 417 422 147 278 250 l 278 1042 l 97 1042 z "},"Ú":{"ha":1267,"x_min":0,"x_max":0,"o":"m 710 1119 l 931 1315 l 740 1315 l 558 1119 z m 97 417 b 635 -24 97 153 313 -24 b 1169 417 956 -24 1169 153 l 1169 1042 l 989 1042 l 989 417 b 638 147 989 250 849 147 b 278 417 422 147 278 250 l 278 1042 l 97 1042 z "},"Û":{"ha":1267,"x_min":0,"x_max":0,"o":"m 501 1107 l 633 1231 l 764 1107 l 922 1107 l 714 1331 l 551 1331 l 343 1107 z m 97 417 b 635 -24 97 153 313 -24 b 1169 417 956 -24 1169 153 l 1169 1042 l 989 1042 l 989 417 b 638 147 989 250 849 147 b 278 417 422 147 278 250 l 278 1042 l 97 1042 z "},"Ü":{"ha":1267,"x_min":0,"x_max":0,"o":"m 536 1114 l 536 1271 l 363 1271 l 363 1114 z m 894 1114 l 894 1271 l 721 1271 l 721 1114 z m 97 417 b 635 -24 97 153 313 -24 b 1169 417 956 -24 1169 153 l 1169 1042 l 989 1042 l 989 417 b 638 147 989 250 849 147 b 278 417 422 147 278 250 l 278 1042 l 97 1042 z "},"Ý":{"ha":1243,"x_min":0,"x_max":0,"o":"m 699 1119 l 919 1315 l 729 1315 l 547 1119 z m 535 379 l 535 0 l 715 0 l 715 379 l 1226 1042 l 1024 1042 l 629 543 l 236 1042 l 17 1042 z "},"ß":{"ha":833,"x_min":0,"x_max":0,"o":""},"à":{"ha":965,"x_min":0,"x_max":0,"o":"m 432 871 l 583 871 l 401 1067 l 211 1067 z m 63 203 b 354 -22 61 68 178 -22 b 715 168 538 -22 682 54 l 719 0 l 867 0 l 868 464 b 521 793 867 657 739 793 b 133 672 378 793 219 744 l 133 521 b 504 650 222 599 364 650 b 714 485 624 650 713 583 l 615 485 b 63 203 299 485 65 372 z m 226 219 b 628 364 226 304 388 364 l 697 364 b 226 219 697 110 226 35 z "},"á":{"ha":965,"x_min":0,"x_max":0,"o":"m 582 871 l 803 1067 l 613 1067 l 431 871 z m 63 203 b 354 -22 61 68 178 -22 b 715 168 538 -22 682 54 l 719 0 l 867 0 l 868 464 b 521 793 867 657 739 793 b 133 672 378 793 219 744 l 133 521 b 504 650 222 599 364 650 b 714 485 624 650 713 583 l 615 485 b 63 203 299 485 65 372 z m 226 219 b 628 364 226 304 388 364 l 697 364 b 226 219 697 110 226 35 z "},"â":{"ha":965,"x_min":0,"x_max":0,"o":"m 374 858 l 506 982 l 636 858 l 794 858 l 586 1082 l 424 1082 l 215 858 z m 63 203 b 354 -22 61 68 178 -22 b 715 168 538 -22 682 54 l 719 0 l 867 0 l 868 464 b 521 793 867 657 739 793 b 133 672 378 793 219 744 l 133 521 b 504 650 222 599 364 650 b 714 485 624 650 713 583 l 615 485 b 63 203 299 485 65 372 z m 226 219 b 628 364 226 304 388 364 l 697 364 b 226 219 697 110 226 35 z "},"ã":{"ha":965,"x_min":0,"x_max":0,"o":"m 321 885 b 396 979 321 942 351 979 b 632 881 450 979 521 881 b 813 1089 740 881 813 964 l 690 1089 b 615 994 690 1032 660 994 b 379 1093 560 994 492 1093 b 199 885 271 1093 199 1010 z m 63 203 b 354 -22 61 68 178 -22 b 715 168 538 -22 682 54 l 719 0 l 867 0 l 868 464 b 521 793 867 657 739 793 b 133 672 378 793 219 744 l 133 521 b 504 650 222 599 364 650 b 714 485 624 650 713 583 l 615 485 b 63 203 299 485 65 372 z m 226 219 b 628 364 226 304 388 364 l 697 364 b 226 219 697 110 226 35 z "},"ä":{"ha":965,"x_min":0,"x_max":0,"o":"m 408 865 l 408 1022 l 235 1022 l 235 865 z m 767 865 l 767 1022 l 593 1022 l 593 865 z m 63 203 b 354 -22 61 68 178 -22 b 715 168 538 -22 682 54 l 719 0 l 867 0 l 868 464 b 521 793 867 657 739 793 b 133 672 378 793 219 744 l 133 521 b 504 650 222 599 364 650 b 714 485 624 650 713 583 l 615 485 b 63 203 299 485 65 372 z m 226 219 b 628 364 226 304 388 364 l 697 364 b 226 219 697 110 226 35 z "},"å":{"ha":965,"x_min":0,"x_max":0,"o":"m 343 889 b 506 843 382 857 436 843 b 726 1008 646 843 726 913 b 506 1174 726 1104 646 1174 b 285 1008 365 1174 285 1104 b 343 889 285 960 304 921 z m 426 1063 b 506 1081 446 1075 471 1081 b 613 1008 572 1081 613 1054 b 506 933 613 963 572 933 b 399 1008 439 933 399 963 b 426 1063 399 1031 407 1049 z m 63 203 b 354 -22 61 68 178 -22 b 715 168 538 -22 682 54 l 719 0 l 867 0 l 868 464 b 521 793 867 657 739 793 b 133 672 378 793 219 744 l 133 521 b 504 650 222 599 364 650 b 714 485 624 650 713 583 l 615 485 b 63 203 299 485 65 372 z m 226 219 b 628 364 226 304 388 364 l 697 364 b 226 219 697 110 226 35 z "},"æ":{"ha":1813,"x_min":0,"x_max":0,"o":"m 83 203 b 379 -22 82 69 189 -22 b 799 165 558 -22 719 19 b 1189 -26 875 51 1014 -26 b 1522 61 1290 -26 1424 8 l 1522 204 b 1189 111 1450 149 1317 111 b 896 328 1043 111 926 204 l 1553 328 l 1553 458 b 1164 793 1540 665 1385 793 b 828 657 1021 793 904 743 b 518 793 769 747 663 793 b 128 668 339 793 217 743 l 128 510 b 518 650 218 589 342 650 b 725 456 654 650 724 568 l 644 456 b 83 203 383 456 86 426 z m 893 453 b 1158 665 915 589 1021 665 b 1393 453 1293 665 1386 589 z m 251 219 b 653 333 251 326 486 333 l 722 333 b 251 219 722 79 251 35 z "},"ç":{"ha":883,"x_min":0,"x_max":0,"o":"m 797 550 l 797 724 b 515 793 740 767 628 793 b 63 385 243 793 63 631 b 515 -26 63 138 243 -26 b 825 57 619 -26 743 7 l 825 213 b 515 119 761 157 636 119 b 231 385 344 119 231 225 b 515 651 231 544 344 651 b 797 550 608 651 721 611 z m 285 -181 b 571 -219 457 -158 571 -174 b 285 -257 571 -264 457 -279 l 285 -351 b 460 -368 342 -361 413 -368 b 697 -219 603 -368 697 -308 b 460 -69 697 -129 603 -69 b 285 -86 413 -69 342 -76 z "},"è":{"ha":939,"x_min":0,"x_max":0,"o":"m 396 856 l 547 856 l 365 1051 l 175 1051 z m 63 385 b 519 -26 63 138 246 -26 b 853 61 621 -26 754 8 l 853 204 b 519 111 781 149 647 111 b 226 317 374 111 257 193 l 883 317 l 883 447 b 494 793 871 654 715 793 b 63 385 235 793 63 629 z m 224 442 b 489 665 246 578 351 665 b 724 442 624 665 717 578 z "},"é":{"ha":939,"x_min":0,"x_max":0,"o":"m 546 856 l 767 1051 l 576 1051 l 394 856 z m 63 385 b 519 -26 63 138 246 -26 b 853 61 621 -26 754 8 l 853 204 b 519 111 781 149 647 111 b 226 317 374 111 257 193 l 883 317 l 883 447 b 494 793 871 654 715 793 b 63 385 235 793 63 629 z m 224 442 b 489 665 246 578 351 665 b 724 442 624 665 717 578 z "},"ê":{"ha":939,"x_min":0,"x_max":0,"o":"m 338 843 l 469 967 l 600 843 l 758 843 l 550 1067 l 388 1067 l 179 843 z m 63 385 b 519 -26 63 138 246 -26 b 853 61 621 -26 754 8 l 853 204 b 519 111 781 149 647 111 b 226 317 374 111 257 193 l 883 317 l 883 447 b 494 793 871 654 715 793 b 63 385 235 793 63 629 z m 224 442 b 489 665 246 578 351 665 b 724 442 624 665 717 578 z "},"ë":{"ha":939,"x_min":0,"x_max":0,"o":"m 372 850 l 372 1007 l 199 1007 l 199 850 z m 731 850 l 731 1007 l 557 1007 l 557 850 z m 63 385 b 519 -26 63 138 246 -26 b 853 61 621 -26 754 8 l 853 204 b 519 111 781 149 647 111 b 226 317 374 111 257 193 l 883 317 l 883 447 b 494 793 871 654 715 793 b 63 385 235 793 63 629 z m 224 442 b 489 665 246 578 351 665 b 724 442 624 665 717 578 z "},"ì":{"ha":392,"x_min":0,"x_max":0,"o":"m 122 867 l 274 867 l 92 1063 l -99 1063 z m 281 0 l 281 765 l 107 765 l 107 0 z "},"í":{"ha":392,"x_min":0,"x_max":0,"o":"m 272 867 l 493 1063 l 303 1063 l 121 867 z m 281 0 l 281 765 l 107 765 l 107 0 z "},"î":{"ha":392,"x_min":0,"x_max":0,"o":"m 64 854 l 196 978 l 326 854 l 485 854 l 276 1078 l 114 1078 l -94 854 z m 281 0 l 281 765 l 107 765 l 107 0 z "},"ï":{"ha":392,"x_min":0,"x_max":0,"o":"m 99 861 l 99 1018 l -75 1018 l -75 861 z m 457 861 l 457 1018 l 283 1018 l 283 861 z m 281 0 l 281 765 l 107 765 l 107 0 z "},"ñ":{"ha":1008,"x_min":0,"x_max":0,"o":"m 319 860 b 394 954 319 917 350 954 b 631 856 449 954 519 856 b 811 1064 739 856 811 939 l 689 1064 b 614 969 689 1007 658 969 b 378 1068 558 969 490 1068 b 197 860 269 1068 197 985 z m 100 0 l 274 0 l 274 382 b 560 647 317 542 431 647 b 731 490 663 647 731 571 l 731 0 l 904 0 l 904 490 b 614 793 904 686 788 793 b 274 564 449 793 313 701 l 274 765 l 100 765 z "},"ò":{"ha":1032,"x_min":0,"x_max":0,"o":"m 443 846 l 594 846 l 413 1042 l 222 1042 z m 515 -26 b 969 385 788 -26 969 138 b 515 794 969 631 788 794 b 63 385 243 794 63 631 b 515 -26 63 138 243 -26 z m 515 119 b 232 385 347 119 232 225 b 515 649 232 543 347 649 b 799 385 683 649 799 543 b 515 119 799 225 683 119 z "},"ó":{"ha":1032,"x_min":0,"x_max":0,"o":"m 593 846 l 814 1042 l 624 1042 l 442 846 z m 515 -26 b 969 385 788 -26 969 138 b 515 794 969 631 788 794 b 63 385 243 794 63 631 b 515 -26 63 138 243 -26 z m 515 119 b 232 385 347 119 232 225 b 515 649 232 543 347 649 b 799 385 683 649 799 543 b 515 119 799 225 683 119 z "},"ô":{"ha":1032,"x_min":0,"x_max":0,"o":"m 385 833 l 517 957 l 647 833 l 806 833 l 597 1057 l 435 1057 l 226 833 z m 515 -26 b 969 385 788 -26 969 138 b 515 794 969 631 788 794 b 63 385 243 794 63 631 b 515 -26 63 138 243 -26 z m 515 119 b 232 385 347 119 232 225 b 515 649 232 543 347 649 b 799 385 683 649 799 543 b 515 119 799 225 683 119 z "},"õ":{"ha":1032,"x_min":0,"x_max":0,"o":"m 332 860 b 407 954 332 917 363 954 b 643 856 461 954 532 856 b 824 1064 751 856 824 939 l 701 1064 b 626 969 701 1007 671 969 b 390 1068 571 969 503 1068 b 210 860 282 1068 210 985 z m 515 -26 b 969 385 788 -26 969 138 b 515 794 969 631 788 794 b 63 385 243 794 63 631 b 515 -26 63 138 243 -26 z m 515 119 b 232 385 347 119 232 225 b 515 649 232 543 347 649 b 799 385 683 649 799 543 b 515 119 799 225 683 119 z "},"ö":{"ha":1032,"x_min":0,"x_max":0,"o":"m 419 840 l 419 997 l 246 997 l 246 840 z m 778 840 l 778 997 l 604 997 l 604 840 z m 515 -26 b 969 385 788 -26 969 138 b 515 794 969 631 788 794 b 63 385 243 794 63 631 b 515 -26 63 138 243 -26 z m 515 119 b 232 385 347 119 232 225 b 515 649 232 543 347 649 b 799 385 683 649 799 543 b 515 119 799 225 683 119 z "},"ø":{"ha":1074,"x_min":0,"x_max":0,"o":"m 825 714 l 913 850 l 746 850 l 696 774 b 536 794 647 788 594 794 b 83 385 264 794 83 631 b 238 63 83 246 140 133 l 146 -81 l 313 -81 l 364 -1 b 536 -26 415 -18 474 -26 b 990 385 808 -26 990 138 b 825 714 990 528 929 642 z m 253 385 b 536 649 253 543 368 649 b 611 642 563 649 588 646 l 325 199 b 253 385 279 244 253 308 z m 536 119 b 449 131 506 119 475 124 l 738 579 b 819 385 789 532 819 465 b 536 119 819 225 704 119 z "},"ù":{"ha":994,"x_min":0,"x_max":0,"o":"m 424 846 l 575 846 l 393 1042 l 203 1042 z m 100 261 b 410 -28 100 96 221 -28 b 717 199 561 -28 678 63 l 717 0 l 890 0 l 890 761 l 717 761 l 717 379 b 469 118 676 222 583 118 b 274 261 350 118 274 183 l 274 761 l 100 761 z "},"ú":{"ha":994,"x_min":0,"x_max":0,"o":"m 574 846 l 794 1042 l 604 1042 l 422 846 z m 100 261 b 410 -28 100 96 221 -28 b 717 199 561 -28 678 63 l 717 0 l 890 0 l 890 761 l 717 761 l 717 379 b 469 118 676 222 583 118 b 274 261 350 118 274 183 l 274 761 l 100 761 z "},"û":{"ha":994,"x_min":0,"x_max":0,"o":"m 365 833 l 497 957 l 628 833 l 786 833 l 578 1057 l 415 1057 l 207 833 z m 100 261 b 410 -28 100 96 221 -28 b 717 199 561 -28 678 63 l 717 0 l 890 0 l 890 761 l 717 761 l 717 379 b 469 118 676 222 583 118 b 274 261 350 118 274 183 l 274 761 l 100 761 z "},"ü":{"ha":994,"x_min":0,"x_max":0,"o":"m 400 840 l 400 997 l 226 997 l 226 840 z m 758 840 l 758 997 l 585 997 l 585 840 z m 100 261 b 410 -28 100 96 221 -28 b 717 199 561 -28 678 63 l 717 0 l 890 0 l 890 761 l 717 761 l 717 379 b 469 118 676 222 583 118 b 274 261 350 118 274 183 l 274 761 l 100 761 z "},"ý":{"ha":833,"x_min":0,"x_max":0,"o":"m 503 846 l 724 1042 l 533 1042 l 351 846 z m 419 14 b 226 -119 363 -75 297 -119 b 78 -92 175 -119 129 -110 l 78 -246 b 243 -265 132 -258 190 -265 b 597 10 367 -265 501 -179 l 974 765 l 794 765 l 517 185 l 224 765 l 28 765 z "},"ÿ":{"ha":833,"x_min":0,"x_max":0,"o":"m 340 865 l 340 1022 l 167 1022 l 167 865 z m 699 865 l 699 1022 l 525 1022 l 525 865 z m 419 14 b 226 -119 363 -75 297 -119 b 78 -92 175 -119 129 -110 l 78 -246 b 243 -265 132 -258 190 -265 b 597 10 367 -265 501 -179 l 974 765 l 794 765 l 517 185 l 224 765 l 28 765 z "},"Ă":{"ha":1297,"x_min":0,"x_max":0,"o":"m 408 1326 b 656 1146 418 1211 513 1146 b 904 1326 799 1146 894 1211 l 781 1326 b 656 1244 771 1272 729 1244 b 531 1326 582 1244 540 1272 z m 17 0 l 219 0 l 351 261 l 949 261 l 1076 0 l 1281 0 l 756 1042 l 561 1042 z m 426 414 l 656 867 l 876 414 z "},"ă":{"ha":965,"x_min":0,"x_max":0,"o":"m 258 1064 b 506 883 268 949 363 883 b 754 1064 649 883 744 949 l 631 1064 b 506 982 621 1010 579 982 b 381 1064 432 982 390 1010 z m 63 203 b 354 -22 61 68 178 -22 b 715 168 538 -22 682 54 l 719 0 l 867 0 l 868 464 b 521 793 867 657 739 793 b 133 672 378 793 219 744 l 133 521 b 504 650 222 599 364 650 b 714 485 624 650 713 583 l 615 485 b 63 203 299 485 65 372 z m 226 219 b 628 364 226 304 388 364 l 697 364 b 226 219 697 110 226 35 z "},"Œ":{"ha":2124,"x_min":0,"x_max":0,"o":"m 97 521 b 718 -28 97 192 346 -28 b 1150 126 906 -28 1051 28 l 1150 0 l 2015 0 l 2015 153 l 1303 153 l 1303 450 l 1929 450 l 1929 603 l 1303 603 l 1303 889 l 2004 889 l 2004 1042 l 1150 1042 l 1150 915 b 718 1068 1051 1013 906 1068 b 97 521 346 1068 97 850 z m 286 521 b 718 903 286 747 457 903 b 1150 521 979 903 1150 747 b 718 138 1150 294 979 138 b 286 521 457 138 286 294 z "},"œ":{"ha":1703,"x_min":0,"x_max":0,"o":"m 83 385 b 536 -26 83 138 264 -26 b 893 140 701 -26 824 38 b 1263 -26 954 38 1096 -26 b 1596 61 1364 -26 1497 8 l 1596 207 b 1263 114 1524 151 1390 114 b 969 317 1117 114 1000 193 l 1626 317 l 1626 447 b 1238 793 1614 654 1458 793 b 892 631 1082 793 963 731 b 536 794 821 732 700 794 b 83 385 264 794 83 631 z m 967 442 b 1232 665 989 578 1094 665 b 1467 442 1367 665 1460 578 z m 253 385 b 536 649 253 543 368 649 b 819 385 704 649 819 543 b 536 119 819 225 704 119 b 253 385 368 119 253 225 z "},"Ŷ":{"ha":1243,"x_min":0,"x_max":0,"o":"m 490 1107 l 622 1231 l 753 1107 l 911 1107 l 703 1331 l 540 1331 l 332 1107 z m 535 379 l 535 0 l 715 0 l 715 379 l 1226 1042 l 1024 1042 l 629 543 l 236 1042 l 17 1042 z "},"ŷ":{"ha":833,"x_min":0,"x_max":0,"o":"m 297 833 l 429 957 l 560 833 l 718 833 l 510 1057 l 347 1057 l 139 833 z m 419 14 b 226 -119 363 -75 297 -119 b 78 -92 175 -119 129 -110 l 78 -246 b 243 -265 132 -258 190 -265 b 597 10 367 -265 501 -179 l 974 765 l 794 765 l 517 185 l 224 765 l 28 765 z "},"Ÿ":{"ha":1243,"x_min":0,"x_max":0,"o":"m 525 1114 l 525 1271 l 351 1271 l 351 1114 z m 883 1114 l 883 1271 l 710 1271 l 710 1114 z m 535 379 l 535 0 l 715 0 l 715 379 l 1226 1042 l 1024 1042 l 629 543 l 236 1042 l 17 1042 z "},"Ș":{"ha":1185,"x_min":0,"x_max":0,"o":"m 90 743 b 917 281 90 375 917 503 b 619 133 917 192 797 133 b 97 279 376 133 168 192 l 97 81 b 619 -28 193 15 401 -28 b 1094 311 904 -28 1094 108 b 268 760 1094 683 268 528 b 592 908 268 849 397 908 b 1049 790 801 908 985 861 l 1049 982 b 592 1068 946 1033 763 1068 b 90 743 290 1068 90 938 z m 589 -364 l 643 -85 l 494 -85 l 464 -364 z "},"ș":{"ha":943,"x_min":0,"x_max":0,"o":"m 94 560 b 208 372 94 474 136 406 b 469 319 263 347 367 332 b 693 217 604 303 693 290 b 493 115 693 142 613 115 b 100 218 329 115 171 157 l 100 64 b 493 -28 186 8 344 -28 b 857 231 714 -28 857 75 b 631 440 857 335 769 418 b 346 478 544 454 432 464 b 250 554 289 486 250 517 b 465 660 250 618 336 660 b 821 578 589 660 731 626 l 821 728 b 465 793 742 764 600 793 b 94 560 235 793 94 700 z m 506 -364 l 560 -85 l 411 -85 l 381 -364 z "},"Ỳ":{"ha":1243,"x_min":0,"x_max":0,"o":"m 549 1119 l 700 1119 l 518 1315 l 328 1315 z m 535 379 l 535 0 l 715 0 l 715 379 l 1226 1042 l 1024 1042 l 629 543 l 236 1042 l 17 1042 z "},"ỳ":{"ha":833,"x_min":0,"x_max":0,"o":"m 335 846 l 486 846 l 304 1042 l 114 1042 z m 419 14 b 226 -119 363 -75 297 -119 b 78 -92 175 -119 129 -110 l 78 -246 b 243 -265 132 -258 190 -265 b 597 10 367 -265 501 -179 l 974 765 l 794 765 l 517 185 l 224 765 l 28 765 z "},"–":{"ha":833,"x_min":0,"x_max":0,"o":""},"—":{"ha":833,"x_min":0,"x_max":0,"o":""},"‘":{"ha":833,"x_min":0,"x_max":0,"o":"m 303 971 l 263 574 l 404 574 l 500 971 z "},"’":{"ha":833,"x_min":0,"x_max":0,"o":"m 246 574 l 443 574 l 486 971 l 344 971 z "},"‚":{"ha":833,"x_min":0,"x_max":0,"o":"m 275 -226 l 472 -226 l 515 171 l 374 171 z "},"“":{"ha":833,"x_min":0,"x_max":0,"o":"m 243 971 l 203 574 l 344 574 l 440 971 z m 518 971 l 478 574 l 619 574 l 715 971 z "},"”":{"ha":833,"x_min":0,"x_max":0,"o":"m 160 574 l 357 574 l 400 971 l 258 971 z m 435 574 l 632 574 l 675 971 l 533 971 z "},"„":{"ha":833,"x_min":0,"x_max":0,"o":"m 160 -268 l 357 -268 l 400 129 l 258 129 z m 435 -268 l 632 -268 l 675 129 l 533 129 z "},"•":{"ha":833,"x_min":0,"x_max":0,"o":""},"…":{"ha":929,"x_min":0,"x_max":0,"o":"m 263 0 l 263 181 l 69 181 l 69 0 z m 561 0 l 561 181 l 368 181 l 368 0 z m 860 0 l 860 181 l 667 181 l 667 0 z "},"‹":{"ha":529,"x_min":0,"x_max":0,"o":"m 460 -26 l 460 157 l 200 386 l 460 615 l 460 799 l 69 456 l 69 317 z "},"›":{"ha":529,"x_min":0,"x_max":0,"o":"m 460 317 l 460 456 l 69 799 l 69 615 l 329 386 l 69 157 l 69 -26 z "},"−":{"ha":833,"x_min":0,"x_max":0,"o":""},"Ț":{"ha":1157,"x_min":0,"x_max":0,"o":"m 35 889 l 483 889 l 483 0 l 664 0 l 664 889 l 1122 889 l 1122 1042 l 35 1042 z m 589 -364 l 643 -85 l 494 -85 l 464 -364 z "},"ı":{"ha":392,"x_min":0,"x_max":0,"o":"m 281 0 l 281 765 l 107 765 l 107 0 z "},"ț":{"ha":833,"x_min":0,"x_max":0,"o":"m 49 768 l 50 626 l 232 626 l 232 232 b 557 -26 232 76 363 -26 b 814 42 657 -26 760 1 l 814 193 b 585 117 771 147 679 117 b 406 228 478 117 406 161 l 406 626 l 796 626 l 796 768 l 406 768 l 406 986 l 232 986 l 232 768 z m 521 -364 l 575 -85 l 426 -85 l 396 -364 z "},"«":{"ha":947,"x_min":0,"x_max":0,"o":"m 460 -26 l 460 157 l 200 386 l 460 615 l 460 799 l 69 456 l 69 317 z m 878 -26 l 878 157 l 618 386 l 878 615 l 878 799 l 488 456 l 488 317 z "},"»":{"ha":947,"x_min":0,"x_max":0,"o":"m 460 317 l 460 456 l 69 799 l 69 615 l 329 386 l 69 157 l 69 -26 z m 878 317 l 878 456 l 488 799 l 488 615 l 747 386 l 488 157 l 488 -26 z "},"€":{"ha":1139,"x_min":0,"x_max":0,"o":"m 758 140 b 426 328 606 140 488 213 l 869 328 l 869 457 l 386 457 b 382 521 383 478 382 499 b 383 550 382 531 382 540 l 869 550 l 869 679 l 411 679 b 758 900 465 814 590 900 b 1035 807 885 900 996 863 l 1035 986 b 750 1063 965 1032 853 1063 b 225 679 492 1063 288 914 l 63 679 l 63 550 l 206 550 l 206 521 b 208 457 206 499 207 478 l 63 457 l 63 328 l 236 328 b 750 -22 308 111 504 -22 b 1056 54 864 -22 986 8 l 1056 233 b 758 140 1015 178 897 140 z "},"̈":{"ha":0,"x_min":0,"x_max":0,"o":"m -493 865 l -493 1022 l -667 1022 l -667 865 z m -135 865 l -135 1022 l -308 1022 l -308 865 z "},"̀":{"ha":0,"x_min":0,"x_max":0,"o":"m -499 846 l -347 846 l -529 1042 l -719 1042 z "},"́":{"ha":0,"x_min":0,"x_max":0,"o":"m -331 846 l -110 1042 l -300 1042 l -482 846 z "},"̂":{"ha":0,"x_min":0,"x_max":0,"o":"m -536 833 l -404 957 l -274 833 l -115 833 l -324 1057 l -486 1057 l -694 833 z "},"̆":{"ha":0,"x_min":0,"x_max":0,"o":"m -628 1039 b -381 858 -618 924 -524 858 b -132 1039 -237 858 -142 924 l -256 1039 b -381 957 -265 985 -307 957 b -506 1039 -454 957 -496 985 z "},"̊":{"ha":0,"x_min":0,"x_max":0,"o":"m -571 864 b -408 818 -532 832 -478 818 b -187 983 -268 818 -187 888 b -408 1149 -187 1079 -268 1149 b -629 983 -549 1149 -629 1079 b -571 864 -629 935 -610 896 z m -487 1038 b -408 1056 -468 1050 -443 1056 b -301 983 -342 1056 -301 1029 b -408 908 -301 938 -342 908 b -515 983 -475 908 -515 938 b -487 1038 -515 1006 -507 1024 z "},"̃":{"ha":0,"x_min":0,"x_max":0,"o":"m -586 860 b -511 954 -586 917 -556 954 b -275 856 -457 954 -386 856 b -94 1064 -167 856 -94 939 l -217 1064 b -292 969 -217 1007 -247 969 b -528 1068 -347 969 -415 1068 b -708 860 -636 1068 -708 985 z "},"̦":{"ha":0,"x_min":0,"x_max":0,"o":"m -244 -364 l -190 -85 l -339 -85 l -369 -364 z "},"̧":{"ha":0,"x_min":0,"x_max":0,"o":"m -625 -162 b -339 -201 -453 -140 -339 -156 b -625 -239 -339 -246 -453 -261 l -625 -333 b -450 -350 -568 -343 -497 -350 b -212 -201 -307 -350 -212 -290 b -450 -51 -212 -111 -307 -51 b -625 -68 -497 -51 -568 -58 z "}}}
